<svg width="406" height="282" viewBox="0 0 406 282" fill="none" xmlns="http://www.w3.org/2000/svg">
<g clip-path="url(#clip0_44_94)">
<path d="M80.8928 282C125.569 282 161.786 279.254 161.786 275.867C161.786 272.479 125.569 269.733 80.8928 269.733C36.2169 269.733 0 272.479 0 275.867C0 279.254 36.2169 282 80.8928 282Z" fill="#E6E6E6"/>
<path d="M61.833 62.5708C75.9108 56.5932 93.4449 60.3806 110.569 63.0092C110.728 59.8259 112.66 55.9517 110.636 53.7309C108.178 51.0328 108.405 48.1979 109.884 45.3467C113.666 38.0556 108.247 30.2974 102.775 23.8466C101.542 22.3959 99.9834 21.2561 98.2259 20.5197C96.4685 19.7833 94.5619 19.4711 92.6609 19.6085L82.525 20.3313C80.0586 20.5072 77.7047 21.4309 75.7785 22.9788C73.8522 24.5267 72.4454 26.6249 71.7463 28.9928C69.3261 32.2789 68.0307 35.5558 68.8463 38.8158C65.2211 41.289 64.6121 44.2744 66.2411 47.6399C67.6224 49.759 67.6077 51.8217 66.1782 53.8273C64.3009 56.3843 62.8631 59.2355 61.9236 62.2639L61.833 62.5708Z" fill="#2F2E41"/>
<path d="M396.379 243.784H109.457C106.905 243.784 104.458 242.773 102.654 240.971C100.85 239.17 99.8359 236.727 99.8359 234.18C203.845 222.112 305.9 222.112 406 234.18C406 236.727 404.986 239.17 403.182 240.971C401.378 242.773 398.931 243.784 396.379 243.784Z" fill="#2F2E41"/>
<path d="M406 234.745L99.8359 234.18L135.319 174.576L135.489 174.293V42.9321C135.489 41.3376 135.803 39.7588 136.415 38.2857C137.026 36.8126 137.921 35.4741 139.051 34.3466C140.18 33.2192 141.521 32.3249 142.996 31.7148C144.472 31.1047 146.054 30.7907 147.651 30.7909H356.487C358.084 30.7907 359.666 31.1047 361.142 31.7148C362.617 32.3249 363.958 33.2192 365.087 34.3466C366.217 35.4741 367.112 36.8126 367.723 38.2857C368.335 39.7588 368.649 41.3376 368.649 42.9321V175.197L406 234.745Z" fill="#3F3D56"/>
<path d="M147.374 39.2654C146.323 39.2666 145.316 39.6836 144.574 40.425C143.831 41.1664 143.413 42.1717 143.412 43.2202V162.994C143.413 164.042 143.831 165.047 144.574 165.789C145.316 166.53 146.323 166.947 147.374 166.949H358.463C359.513 166.947 360.52 166.53 361.262 165.789C362.005 165.047 362.423 164.042 362.424 162.994V43.2202C362.423 42.1717 362.005 41.1665 361.262 40.4251C360.52 39.6837 359.513 39.2666 358.463 39.2654H147.374Z" fill="white"/>
<path d="M148.258 182.768C147.933 182.768 147.616 182.861 147.342 183.036C147.069 183.211 146.852 183.46 146.715 183.754L135.782 207.483C135.663 207.741 135.611 208.025 135.631 208.309C135.65 208.592 135.741 208.866 135.895 209.106C136.048 209.345 136.26 209.542 136.509 209.678C136.759 209.815 137.039 209.886 137.324 209.886H367.25C367.54 209.886 367.824 209.812 368.077 209.672C368.33 209.531 368.542 209.328 368.694 209.082C368.846 208.837 368.933 208.556 368.946 208.267C368.959 207.979 368.898 207.692 368.768 207.433L356.884 183.705C356.744 183.422 356.527 183.185 356.259 183.02C355.991 182.854 355.681 182.767 355.366 182.768H148.258Z" fill="#2F2E41"/>
<path d="M252.069 37.288C253.476 37.288 254.616 36.1498 254.616 34.7456C254.616 33.3415 253.476 32.2033 252.069 32.2033C250.663 32.2033 249.522 33.3415 249.522 34.7456C249.522 36.1498 250.663 37.288 252.069 37.288Z" fill="white"/>
<path d="M229.47 214.406C229.096 214.407 228.734 214.53 228.437 214.756C228.141 214.983 227.928 215.3 227.83 215.66L225.088 225.83C225.02 226.081 225.011 226.344 225.062 226.599C225.112 226.855 225.221 227.095 225.379 227.301C225.538 227.508 225.742 227.675 225.976 227.79C226.209 227.905 226.466 227.965 226.727 227.965H278.884C279.155 227.965 279.422 227.901 279.662 227.777C279.903 227.653 280.11 227.474 280.267 227.253C280.424 227.033 280.526 226.779 280.565 226.511C280.603 226.244 280.577 225.971 280.488 225.716L276.962 215.546C276.847 215.214 276.63 214.925 276.343 214.72C276.055 214.516 275.711 214.406 275.358 214.406H229.47Z" fill="#2F2E41"/>
<path d="M368.649 172.316V174.575H135.319L135.495 174.293V172.316H368.649Z" fill="#2F2E41"/>
<path d="M362.141 79.0958C384.019 79.0958 401.755 61.3896 401.755 39.5479C401.755 17.7062 384.019 0 362.141 0C340.262 0 322.526 17.7062 322.526 39.5479C322.526 61.3896 340.262 79.0958 362.141 79.0958Z" fill="#9DC164"/>
<path d="M378.553 56.7795H345.73C345.129 56.7789 344.554 56.5406 344.129 56.1169C343.705 55.6932 343.466 55.1188 343.466 54.5196V34.7456C343.466 34.1465 343.705 33.572 344.13 33.1484C344.554 32.7247 345.129 32.4864 345.73 32.4858H378.553C379.153 32.4864 379.729 32.7247 380.153 33.1484C380.577 33.572 380.816 34.1465 380.817 34.7456V54.5196C380.816 55.1188 380.577 55.6932 380.153 56.1169C379.729 56.5406 379.153 56.7789 378.553 56.7795ZM345.73 34.7457V54.5196H378.555L378.553 34.7456L345.73 34.7457Z" fill="white"/>
<path d="M372.328 34.7456H351.955V25.7061C351.955 19.1588 356.239 14.4067 362.141 14.4067C368.044 14.4067 372.328 19.1588 372.328 25.7061L372.328 34.7456ZM354.218 32.4858H370.064V25.7061C370.064 20.3839 366.806 16.6666 362.141 16.6666C357.476 16.6666 354.218 20.3839 354.218 25.7061L354.218 32.4858Z" fill="white"/>
<path d="M362.141 46.3275C363.391 46.3275 364.405 45.3157 364.405 44.0676C364.405 42.8195 363.391 41.8078 362.141 41.8078C360.891 41.8078 359.877 42.8195 359.877 44.0676C359.877 45.3157 360.891 46.3275 362.141 46.3275Z" fill="white"/>
<path d="M334.487 126.323H171.35C170.549 126.322 169.781 126.004 169.214 125.438C168.648 124.873 168.33 124.106 168.329 123.307V82.9073C168.33 82.1077 168.648 81.3412 169.214 80.7758C169.781 80.2104 170.549 79.8923 171.35 79.8914H334.487C335.288 79.8923 336.056 80.2104 336.622 80.7758C337.188 81.3412 337.507 82.1077 337.508 82.9073V123.307C337.507 124.106 337.188 124.873 336.622 125.438C336.056 126.004 335.288 126.322 334.487 126.323ZM171.35 81.0978C170.869 81.0983 170.408 81.2891 170.069 81.6284C169.729 81.9676 169.538 82.4276 169.537 82.9073V123.307C169.538 123.786 169.729 124.246 170.069 124.586C170.408 124.925 170.869 125.116 171.35 125.116H334.487C334.967 125.116 335.428 124.925 335.768 124.586C336.108 124.246 336.299 123.786 336.299 123.307V82.9073C336.299 82.4276 336.108 81.9676 335.768 81.6283C335.428 81.2891 334.967 81.0983 334.487 81.0978L171.35 81.0978Z" fill="#E6E6E6"/>
<path d="M196.698 113.842C203.494 113.842 209.004 108.342 209.004 101.557C209.004 94.7718 203.494 89.2714 196.698 89.2714C189.901 89.2714 184.392 94.7718 184.392 101.557C184.392 108.342 189.901 113.842 196.698 113.842Z" fill="#E6E6E6"/>
<path d="M225.119 93.3666C224.85 93.3661 224.583 93.4188 224.333 93.5215C224.084 93.6242 223.858 93.775 223.667 93.9651C223.476 94.1553 223.325 94.3812 223.221 94.6298C223.118 94.8784 223.065 95.145 223.065 95.4141C223.065 95.6833 223.118 95.9498 223.221 96.1985C223.325 96.4471 223.476 96.673 223.667 96.8631C223.858 97.0533 224.084 97.2041 224.333 97.3068C224.583 97.4095 224.85 97.4621 225.119 97.4617H321.811C322.355 97.4617 322.876 97.246 323.261 96.862C323.645 96.478 323.862 95.9572 323.862 95.4141C323.862 94.8711 323.645 94.3503 323.261 93.9663C322.876 93.5823 322.355 93.3666 321.811 93.3666H225.119Z" fill="#E6E6E6"/>
<path d="M225.119 105.652C224.575 105.652 224.053 105.868 223.669 106.252C223.284 106.636 223.068 107.157 223.068 107.7C223.068 108.243 223.284 108.763 223.669 109.147C224.053 109.531 224.575 109.747 225.119 109.747H266.725C267.269 109.747 267.791 109.531 268.176 109.147C268.56 108.763 268.776 108.243 268.776 107.7C268.776 107.157 268.56 106.636 268.176 106.252C267.791 105.868 267.269 105.652 266.725 105.652H225.119Z" fill="#E6E6E6"/>
<path d="M134.918 106.48L104.761 122.486L104.379 109.148C114.222 107.508 123.587 104.651 132.246 100.002L135.4 92.2225C135.743 91.3748 136.302 90.6309 137.021 90.0639C137.739 89.4968 138.593 89.1261 139.499 88.988C140.404 88.85 141.33 88.9494 142.186 89.2765C143.041 89.6036 143.797 90.1471 144.378 90.8538C145.229 91.8877 145.654 93.2057 145.568 94.5409C145.481 95.876 144.89 97.1285 143.913 98.0446L134.918 106.48Z" fill="#FFB8B8"/>
<path d="M61.2316 198.893C61.0116 198.087 60.9649 197.244 61.0946 196.42C61.2242 195.595 61.5273 194.807 61.9839 194.107L68.6086 183.958C70.1754 181.557 72.5797 179.823 75.3549 179.092C78.1301 178.361 81.0783 178.685 83.6275 180.002C80.8433 184.733 81.2315 188.883 84.589 192.49C79.3768 195.031 74.5595 198.309 70.2863 202.225C69.5062 202.755 68.6103 203.093 67.6733 203.208C66.7362 203.323 65.7852 203.213 64.8993 202.887C64.0134 202.561 63.2184 202.029 62.5804 201.334C61.9424 200.639 61.48 199.802 61.2316 198.893Z" fill="#2F2E41"/>
<path d="M136.292 185.622C135.289 187.29 133.874 188.673 132.182 189.637C130.49 190.602 128.578 191.117 126.63 191.131L82.6201 191.464L80.7114 180.413L100.18 174.696L83.7653 162.12L101.707 141.16L134.294 171.482C136.199 173.254 137.437 175.625 137.8 178.199C138.164 180.773 137.631 183.393 136.292 185.622Z" fill="#2F2E41"/>
<path d="M75.7486 261.204H65.4417C56.1876 197.878 46.7678 134.375 74.6034 110.672L107.433 116.008L103.234 143.828L84.9103 164.788L75.7486 261.204Z" fill="#2F2E41"/>
<path d="M84.8092 275.55C84.0023 275.769 83.158 275.816 82.3318 275.687C81.5055 275.557 80.7161 275.255 80.0154 274.799L68.8243 273.297C66.4195 271.733 64.6824 269.333 63.9501 266.563C63.2178 263.792 63.5424 260.849 64.861 258.304C69.6003 261.083 73.7577 260.695 77.3705 257.343C79.9232 262.489 84.1291 262.175 88.1459 266.51C88.6778 267.289 89.0155 268.183 89.1311 269.119C89.2466 270.054 89.1365 271.004 88.8101 271.888C88.4836 272.772 87.9502 273.566 87.2543 274.203C86.5583 274.84 85.72 275.302 84.8092 275.55Z" fill="#2F2E41"/>
<path d="M100.18 68.3709L81.0933 63.7978C84.2633 57.3199 84.5243 50.112 83.0019 42.4565L95.981 42.0754C96.3876 51.5952 97.618 60.4891 100.18 68.3709Z" fill="#FFB8B8"/>
<path d="M105.425 127.482C91.5309 136.934 81.7135 127.806 74.2216 113.721C75.2627 105.103 73.577 94.789 70.4551 83.5823C69.0667 78.6394 69.5851 73.3564 71.9079 68.7764C74.2306 64.1964 78.189 60.6522 83.0015 58.8436L99.4162 65.7033C113.354 77.0452 116.098 89.3307 110.868 102.288L105.425 127.482Z" fill="#9DC164"/>
<path d="M65.4421 77.8983L50.1726 85.9012L77.2759 101.907L81.0472 111.194C81.2989 111.814 81.4215 112.478 81.4076 113.147C81.3936 113.816 81.2434 114.475 80.9661 115.083C80.6887 115.692 80.2901 116.238 79.7945 116.688C79.2988 117.138 78.7166 117.483 78.0832 117.701C77.3632 117.949 76.5956 118.027 75.8403 117.929C75.0851 117.831 74.3627 117.56 73.7299 117.137C73.0971 116.714 72.5709 116.151 72.1926 115.491C71.8144 114.831 71.5943 114.093 71.5495 113.334L71.1682 106.861L36.7202 95.5127C35.5596 95.1303 34.5013 94.4893 33.6256 93.6382C32.7498 92.787 32.0796 91.7481 31.6656 90.6001C31.0622 88.9267 31.0315 87.1008 31.5783 85.4081C32.1251 83.7154 33.2186 82.2515 34.6876 81.2453L62.3882 62.2734L65.4421 77.8983Z" fill="#FFB8B8"/>
<path d="M80.7114 79.4227C74.3431 76.6365 68.5522 79.6631 61.2429 82.0903L60.0977 61.8923C67.3555 58.0305 74.2754 56.9893 80.7114 59.9869L80.7114 79.4227Z" fill="#9DC164"/>
<path d="M88.3293 52.0802C95.0595 52.0802 100.515 46.6334 100.515 39.9145C100.515 33.1956 95.0595 27.7488 88.3293 27.7488C81.599 27.7488 76.1431 33.1956 76.1431 39.9145C76.1431 46.6334 81.599 52.0802 88.3293 52.0802Z" fill="#FFB8B8"/>
<path d="M102.908 38.3795C90.8425 39.5592 81.6487 37.5893 75.7729 31.9803V27.4632H101.884L102.908 38.3795Z" fill="#2F2E41"/>
</g>
<defs>
<clipPath id="clip0_44_94">
<rect width="406" height="282" fill="white"/>
</clipPath>
</defs>
</svg>
